<svg version="1.0" xmlns="http://www.w3.org/2000/svg"
                        width="80" height="80" viewBox="0 0 1280 1221">
                            <g transform="translate(0,1221) scale(0.1,-0.1)"
                            fill="currentColor" stroke="none">
                            <path d="M12338 12195 c-221 -42 -535 -187 -1078 -498 -1589 -910 -2995 -2217
                            -4032 -3747 -521 -769 -946 -1582 -1285 -2460 -136 -353 -307 -890 -403 -1268
                            l-11 -43 -92 79 c-827 707 -2285 1843 -2451 1910 -160 65 -451 25 -691 -95
                            -114 -58 -167 -93 -232 -156 -62 -60 -81 -103 -61 -144 8 -17 99 -92 238 -196
                            520 -387 866 -655 1290 -996 585 -471 1044 -862 1748 -1490 123 -109 154 -125
                            276 -137 217 -22 617 105 782 250 56 48 70 75 84 162 198 1196 527 2224 1051
                            3285 390 789 812 1449 1370 2144 747 930 1585 1698 2565 2352 312 209 598 374
                            1059 614 165 86 210 114 257 161 115 115 101 205 -41 259 -73 28 -235 34 -343
                            14z"/>
                            <path d="M5330 11099 c-384 -14 -742 -64 -1120 -159 -820 -205 -1554 -579
                            -2225 -1136 -168 -139 -541 -512 -680 -679 -741 -893 -1163 -1900 -1282 -3055
                            -21 -207 -24 -793 -5 -980 36 -352 81 -618 154 -905 393 -1552 1460 -2876
                            2898 -3596 639 -319 1257 -494 2015 -570 198 -20 768 -17 980 4 702 73 1293
                            238 1903 532 959 463 1795 1227 2344 2141 447 744 697 1518 780 2414 18 203
                            16 727 -6 940 -92 938 -387 1780 -894 2555 -169 260 -327 460 -379 481 -71 30
                            -160 5 -204 -57 -26 -36 -37 -120 -21 -159 6 -14 49 -74 97 -135 110 -140 291
                            -411 389 -584 654 -1141 854 -2473 565 -3753 -225 -998 -767 -1942 -1517
                            -2642 -1200 -1120 -2809 -1610 -4421 -1345 -910 149 -1751 537 -2491 1148
                            -141 116 -526 500 -639 636 -290 349 -498 669 -691 1060 -288 585 -448 1149
                            -516 1825 -21 202 -23 703 -5 900 83 900 362 1708 838 2428 864 1309 2243
                            2155 3793 2327 402 45 905 36 1300 -21 560 -82 1048 -233 1580 -490 129 -63
                            227 -104 245 -104 46 1 109 34 136 71 19 28 24 46 24 100 0 106 -16 120 -269
                            244 -844 412 -1723 598 -2676 564z"/>
                            </g>
                        </svg>