<svg width="104" height="98" viewBox="0 0 104 98" fill="none" xmlns="http://www.w3.org/2000/svg">
<g clip-path="url(#clip0_1_16)">
<g clip-path="url(#clip1_1_16)">
<path d="M93.4225 23.9001L94.304 23.3257C95.372 22.6237 95.2363 21.1079 94.0667 20.5814L87.0485 17.4383C85.8618 16.9118 84.5227 17.7893 84.6243 19.0179L85.3025 26.3092C85.421 27.5218 86.8958 28.1759 87.9638 27.4739L89.2183 26.6602C100.373 43.5724 97.3723 66.1006 81.7763 79.8218C66.4348 93.3195 42.7867 94.963 25.5465 83.7307C24.3938 82.9809 22.8003 83.2521 22.0036 84.3369C21.2068 85.422 21.495 86.9217 22.6477 87.6715C31.1746 93.2239 41.0915 95.9522 50.9915 95.9522C63.3835 95.9522 75.7415 91.6762 85.2515 83.3159C102.661 67.9832 106.018 42.7588 93.4225 23.9001Z" fill="#9747FF"/>
</g>
<path d="M79 49V66.2047C79 66.9807 78.6495 67.6788 78.0652 68.0667L52.9265 84.7089C52.3588 85.097 51.6577 85.097 51.0735 84.7089L25.9348 68.0667C25.3505 67.6788 25 66.9807 25 66.2047V49L38.9382 58.2134L51.0735 66.2629C51.6412 66.6508 52.3423 66.6508 52.9265 66.2629L65.0618 58.2134L79 49Z" fill="#9747FF"/>
<g clip-path="url(#clip2_1_16)">
<path d="M80.5219 10.3284C61.332 -2.18019 35.0055 -0.345383 17.918 14.6841C0.0674736 30.3995 -3.13646 55.5125 10.1709 74.6902L8.93339 75.488C7.86541 76.19 8.00102 77.7057 9.17072 78.2323L16.1889 81.3754C17.3755 81.9018 18.7147 81.0243 18.613 79.7958L17.9349 72.5045C17.8163 71.2919 16.3414 70.6378 15.2734 71.3398L14.358 71.946C2.52552 54.7308 5.39042 32.2503 21.3932 18.1782C36.7347 4.68039 60.3829 3.02108 77.623 14.2693C78.7757 15.0191 80.3692 14.7479 81.166 13.663C81.9627 12.578 81.6745 11.0783 80.5219 10.3284Z" fill="#9747FF"/>
</g>
<path d="M85.0201 40.9602L52.5403 62.4108C51.9556 62.8095 51.2334 62.8095 50.6316 62.4108L18.1518 40.9602C16.8795 40.1229 16.8795 37.9896 18.1518 37.1325L50.6316 15.6818C51.2163 15.2831 51.9385 15.2831 52.5403 15.6818L85.0201 37.1325C86.2924 37.9698 86.2924 40.1029 85.0201 40.9602Z" fill="#9747FF"/>
</g>
<defs>
<clipPath id="clip0_1_16">
<rect width="104" height="98" fill="white"/>
</clipPath>
<clipPath id="clip1_1_16">
<rect width="80" height="80" fill="white" transform="translate(21 16)"/>
</clipPath>
<clipPath id="clip2_1_16">
<rect width="80" height="80" fill="white" transform="translate(2 2)"/>
</clipPath>
</defs>
</svg>
