<svg width="48" height="51" viewBox="0 0 48 51" fill="none" xmlns="http://www.w3.org/2000/svg">
<path d="M43.4535 5.03628L43.9824 4.67011C44.6232 4.22258 44.5418 3.25631 43.84 2.92066L39.6291 0.916934C38.9171 0.581284 38.1136 1.1407 38.1746 1.92388L38.5815 6.57213C38.6526 7.34514 39.5375 7.76216 40.1783 7.31463L40.931 6.7959C47.6237 17.5774 45.8234 31.9391 36.4658 40.6864C27.2609 49.2912 13.072 50.3389 2.72792 43.1783C2.03628 42.7003 1.08018 42.8732 0.602135 43.5648C0.124088 44.2565 0.296999 45.2126 0.988642 45.6906C6.10476 49.2302 12.0549 50.9695 17.9949 50.9695C25.4301 50.9695 32.8449 48.2436 38.5509 42.9139C48.9968 33.1393 51.0107 17.0587 43.4535 5.03628Z" fill="#9747FF"/>
</svg>
