<svg width="48" height="51" viewBox="0 0 48 51" fill="none" xmlns="http://www.w3.org/2000/svg">
<path d="M47.1131 5.30936C35.5992 -2.66487 19.8033 -1.49518 9.55076 8.0861C-1.15953 18.1047 -3.08189 34.1142 4.90252 46.34L4.16002 46.8486C3.51923 47.2961 3.6006 48.2624 4.30242 48.5981L8.5133 50.6018C9.22528 50.9374 10.0288 50.378 9.96778 49.5948L9.56094 44.9466C9.48974 44.1736 8.60484 43.7566 7.96405 44.2041L7.41481 44.5906C0.3153 33.6159 2.03424 19.2846 11.6359 10.3136C20.8408 1.70875 35.0297 0.650942 45.3738 7.82165C46.0654 8.2997 47.0215 8.12679 47.4996 7.43514C47.9776 6.7435 47.8047 5.78741 47.1131 5.30936Z" fill="#9747FF"/>
</svg>
